<?xml version="1.0" encoding="utf-8"?>
<svg version="1.1" xmlns:xlink="http://www.w3.org/1999/xlink" width="285px" height="170px" xmlns="http://www.w3.org/2000/svg">
  <g>
    <path d="M 0 0  L 285 0  L 285 170  L 0 170  L 0 0  " fill-rule="nonzero" fill="#cccccc" stroke="none" />
    <path d="M 12 12  L 273 12  L 273 158  L 12 158  L 12 12  " fill-rule="nonzero" fill="#ffffff" stroke="none" />
    <path d="M 160.95 51  C 153.81 51  148.2 45.39  148.2 38.25  C 148.2 31.11  153.81 25.5  160.95 25.5  C 168.09 25.5  173.7 31.11  173.7 38.25  C 173.7 45.39  168.09 51  160.95 51  " fill-rule="nonzero" fill="#cccccc" stroke="none" />
    <path d="M 17 154  L 17 78.65  L 80 44.4  L 168.2 104.968421052632  L 218.6 64.95  L 269 104.968421052632  L 269 154  L 17 154  " fill-rule="nonzero" fill="#169bd5" stroke="none" />
  </g>
</svg>