<?xml version="1.0" encoding="utf-8"?>
<svg version="1.1" xmlns:xlink="http://www.w3.org/1999/xlink" width="285px" height="162px" xmlns="http://www.w3.org/2000/svg">
  <g>
    <path d="M 0 0  L 285 0  L 285 162  L 0 162  L 0 0  " fill-rule="nonzero" fill="#cccccc" stroke="none" />
    <path d="M 11 11  L 274 11  L 274 151  L 11 151  L 11 11  " fill-rule="nonzero" fill="#ffffff" stroke="none" />
    <path d="M 160.35 48.6  C 153.546 48.6  148.2 43.254  148.2 36.45  C 148.2 29.646  153.546 24.3  160.35 24.3  C 167.154 24.3  172.5 29.646  172.5 36.45  C 172.5 43.254  167.154 48.6  160.35 48.6  " fill-rule="nonzero" fill="#cccccc" stroke="none" />
    <path d="M 15 147  L 15 74.4  L 78.75 41.4  L 168 101.981052631579  L 219 61.2  L 270 101.981052631579  L 270 147  L 15 147  " fill-rule="nonzero" fill="#169bd5" stroke="none" />
  </g>
</svg>