<?xml version="1.0" encoding="utf-8"?>
<svg version="1.1" xmlns:xlink="http://www.w3.org/1999/xlink" width="200px" height="200px" xmlns="http://www.w3.org/2000/svg">
  <g transform="matrix(1 0 0 1 0 -60 )">
    <path d="M 0 60  L 200 60  L 200 260  L 0 260  L 0 60  " fill-rule="nonzero" fill="#cccccc" stroke="none" />
    <path d="M 14 74  L 186 74  L 186 246  L 14 246  L 14 74  " fill-rule="nonzero" fill="#ffffff" stroke="none" />
    <path d="M 119 120  C 110.6 120  104 113.4  104 105  C 104 96.6  110.6 90  119 90  C 127.4 90  134 96.6  134 105  C 134 113.4  127.4 120  119 120  " fill-rule="nonzero" fill="#cccccc" stroke="none" />
    <path d="M 19 241  L 19 151.9  L 59.5 111.4  L 116.2 143.8  L 148.6 135.7  L 181 143.8  L 181 241  L 19 241  " fill-rule="nonzero" fill="#169bd5" stroke="none" />
  </g>
</svg>